<svg width="381pt" height="188pt" viewBox="0.00 0.00 381.00 188.00" xmlns="http://www.w3.org/2000/svg" xmlns:xlink="http://www.w3.org/1999/xlink">
<g id="graph0" class="graph" transform="scale(1 1) rotate(0) translate(4 184)">
<title>DCMS</title>
<polygon fill="white" stroke="none" points="-4,4 -4,-184 376.85,-184 376.85,4 -4,4"/>
<!-- Jarvis -->
<g id="node1" class="node">
<title>Jarvis</title>
<ellipse fill="none" stroke="black" cx="201.44" cy="-162" rx="33.57" ry="18"/>
<text xml:space="preserve" text-anchor="middle" x="201.44" y="-157.8" font-family="Times,serif" font-size="14.00">Jarvis</text>
</g>
<!-- DCMS -->
<g id="node2" class="node">
<title>DCMS</title>
<ellipse fill="none" stroke="black" cx="201.44" cy="-90" rx="38.41" ry="18"/>
<text xml:space="preserve" text-anchor="middle" x="201.44" y="-85.8" font-family="Times,serif" font-size="14.00">DCMS</text>
</g>
<!-- Jarvis&#45;&gt;DCMS -->
<g id="edge1" class="edge">
<title>Jarvis-&gt;DCMS</title>
<path fill="none" stroke="black" d="M201.44,-143.7C201.44,-136.41 201.44,-127.73 201.44,-119.54"/>
<polygon fill="black" stroke="black" points="204.94,-119.62 201.44,-109.62 197.94,-119.62 204.94,-119.62"/>
</g>
<!-- HttpCommand -->
<g id="node3" class="node">
<title>HttpCommand</title>
<ellipse fill="none" stroke="black" cx="68.44" cy="-18" rx="68.44" ry="18"/>
<text xml:space="preserve" text-anchor="middle" x="68.44" y="-13.8" font-family="Times,serif" font-size="14.00">HttpCommand</text>
</g>
<!-- DCMS&#45;&gt;HttpCommand -->
<g id="edge2" class="edge">
<title>DCMS-&gt;HttpCommand</title>
<path fill="none" stroke="black" d="M176.42,-75.83C157.2,-65.71 130.26,-51.54 108.11,-39.88"/>
<polygon fill="black" stroke="black" points="109.81,-36.82 99.33,-35.26 106.55,-43.01 109.81,-36.82"/>
</g>
<!-- Database -->
<g id="node4" class="node">
<title>Database</title>
<ellipse fill="none" stroke="black" cx="201.44" cy="-18" rx="46.42" ry="18"/>
<text xml:space="preserve" text-anchor="middle" x="201.44" y="-13.8" font-family="Times,serif" font-size="14.00">Database</text>
</g>
<!-- DCMS&#45;&gt;Database -->
<g id="edge3" class="edge">
<title>DCMS-&gt;Database</title>
<path fill="none" stroke="black" d="M201.44,-71.7C201.44,-64.41 201.44,-55.73 201.44,-47.54"/>
<polygon fill="black" stroke="black" points="204.94,-47.62 201.44,-37.62 197.94,-47.62 204.94,-47.62"/>
</g>
<!-- WordPress -->
<g id="node5" class="node">
<title>WordPress</title>
<ellipse fill="none" stroke="black" cx="319.44" cy="-18" rx="53.41" ry="18"/>
<text xml:space="preserve" text-anchor="middle" x="319.44" y="-13.8" font-family="Times,serif" font-size="14.00">WordPress</text>
</g>
<!-- DCMS&#45;&gt;WordPress -->
<g id="edge4" class="edge">
<title>DCMS-&gt;WordPress</title>
<path fill="none" stroke="black" d="M224.47,-75.34C241.49,-65.24 264.97,-51.31 284.32,-39.83"/>
<polygon fill="black" stroke="black" points="285.9,-42.97 292.71,-34.86 282.32,-36.95 285.9,-42.97"/>
</g>
</g>
</svg>